<?xml version="1.0" standalone="no"?>
<!DOCTYPE svg PUBLIC "-//W3C//DTD SVG 20010904//EN"
 "http://www.w3.org/TR/2001/REC-SVG-20010904/DTD/svg10.dtd">
<svg version="1.0" xmlns="http://www.w3.org/2000/svg"
 width="347.000000pt" height="347.000000pt" viewBox="0 0 347.000000 347.000000"
 preserveAspectRatio="xMidYMid meet">
<metadata>
Created by potrace 1.14, written by Peter Selinger 2001-2017
</metadata>
<g transform="translate(0.000000,347.000000) scale(0.100000,-0.100000)"
fill="#000000" stroke="none">
<path d="M30 2780 l0 -97 98 3 98 3 13 -51 c14 -54 106 -242 159 -323 43 -66
318 -499 481 -756 l130 -206 -4 -244 c-4 -263 -9 -323 -32 -382 -25 -63 -89
-102 -177 -109 -28 -3 -27 2 -28 -100 l-1 -53 135 -3 134 -3 -1 61 c-1 33 1
63 4 67 3 5 36 16 73 25 127 33 155 84 163 308 2 63 5 188 6 278 l1 163 -41
67 c-23 37 -114 180 -202 317 -88 138 -168 264 -178 280 -61 98 -171 272 -179
280 -47 55 -191 355 -192 398 0 20 2 19 -115 21 l-90 1 -2 65 c-1 36 -2 70 -2
76 -1 8 -42 11 -126 11 l-125 0 0 -97z"/>
<path d="M1605 2871 c-3 -2 -5 -45 -5 -96 l0 -91 53 2 c105 4 172 6 191 5 19
-1 19 -2 0 -23 -35 -40 -47 -60 -147 -248 -139 -262 -199 -378 -249 -476 l-51
-102 53 -91 c30 -50 57 -91 60 -91 7 0 14 14 117 210 36 69 80 152 98 185 18
33 56 105 85 160 29 55 86 154 125 220 39 66 84 143 100 170 15 28 42 67 58
88 l30 38 -139 -3 -138 -3 -1 75 0 75 -118 0 c-65 1 -120 -1 -122 -4z"/>
<path d="M2582 2783 l3 -86 54 -14 c82 -21 150 -61 221 -133 86 -86 152 -216
176 -345 3 -16 7 -37 9 -45 2 -8 4 -25 4 -37 1 -20 5 -22 79 -20 l77 2 1 373
2 372 -103 0 c-102 0 -104 0 -100 -22 9 -52 13 -108 8 -108 -3 0 -27 13 -52
28 -86 53 -222 98 -349 116 l-33 4 3 -85z"/>
<path d="M2033 2198 c-149 -273 -165 -308 -152 -326 65 -83 199 -178 376 -266
73 -36 135 -66 138 -66 17 0 343 -165 392 -198 83 -57 151 -129 182 -192 22
-47 26 -68 26 -150 0 -84 -3 -102 -29 -154 -114 -232 -458 -298 -751 -143 -85
45 -193 156 -232 237 -28 61 -58 160 -66 222 -5 43 -1 42 -125 39 l-42 -1 4
-217 c2 -120 4 -283 5 -363 l1 -145 100 3 100 3 -6 63 -6 63 88 -43 c169 -82
357 -123 542 -119 395 10 677 200 747 505 19 84 14 256 -10 325 -20 60 -61
139 -89 174 -116 143 -251 230 -624 399 -340 156 -470 253 -517 389 l-12 35
-40 -74z"/>
</g>
</svg>
